<svg xmlns="http://www.w3.org/2000/svg" viewBox="0 0 264.87 204.416"><defs><style>.a,.b{fill:#0d0d0d;}.a{fill-rule:evenodd;}</style></defs><g transform="translate(-1687.919 -5579.738)"><path class="a" d="M1242.375,15.938a6.352,6.352,0,0,0-5.121,2.927l-13.415,16.1H1208.23a4.724,4.724,0,0,0-4.146,3.171l-1.463,5.122c-.244.732.244.976.976,1.219l9.024,3.9-3.659,4.39c-2.195,2.683-3.414,6.341-3.17,10.975v28.78h-10.244V104.96h10.244v2.2a3.286,3.286,0,0,0,3.415,3.171h24.39a3.452,3.452,0,0,0,3.415-3.171V98.619h87.8v8.536a3.286,3.286,0,0,0,3.415,3.171h24.39a3.286,3.286,0,0,0,3.415-3.171v-2.2h10.243V92.521h-10.243V63.986c0-4.634-.976-8.292-3.171-10.975l-3.658-4.39,9.024-3.9c.732-.244,1.219-.488.976-1.219l-1.463-5.122a4.724,4.724,0,0,0-4.146-3.171h-15.609l-13.415-16.1a7.633,7.633,0,0,0-5.121-2.927c-30.975-1.951-47.561-1.951-77.072-.244Zm-94.631,194.141h9.512v-13.9h6.585V70.327c0-4.146,2.439-6.1,7.073-5.853h20.975v131.7H1207.5l10,10.244v3.658h125.119v-3.658l10-10.244h15.609V64.474H1389.2c4.634,0,7.073,1.951,7.073,5.853v125.85h6.585v13.9h9.512V219.1H1147.5v-9.024Zm68.534-152.191,21.708,2.683c2.682.244,5.121,2.439,5.121,5.122v3.9a1.574,1.574,0,0,1-1.463,1.463l-21.707-.732a5.935,5.935,0,0,1-5.854-5.853v-4.39a2.186,2.186,0,0,1,2.195-2.2Zm127.8,0a1.993,1.993,0,0,1,2.2,1.951v4.39a6.106,6.106,0,0,1-5.854,5.853l-21.707.732a1.406,1.406,0,0,1-1.463-1.463v-3.9a5.317,5.317,0,0,1,5.122-5.122Z" transform="translate(540.419 5565.051)"/><g transform="translate(802.027 1753.455)"><path class="b" d="M24.25-11.3l1.15-7.75H17.5l1.1-7.9H10.95l-1.1,7.9H1.95L.8-11.3H8.7L7.6-3.4h7.65l1.1-7.9ZM42.6,0l4.85-34.5H37L26.95-30.95l.9,6.45,8.1-1.75A23.577,23.577,0,0,0,35-21.8L31.8,0ZM66.9-35.2c-10.55,0-14.65,4.05-16.55,17.55C48.4-3.75,52.85.7,63.05.7,73.8.7,77.7-3.35,79.6-16.85,81.55-30.75,77.65-35.2,66.9-35.2Zm-.5,8.05c3.3,0,3.65,1,2.55,10-1.05,8.8-1.75,9.8-5.35,9.8-3.45,0-3.75-1-2.6-10C62.15-26.15,62.85-27.15,66.4-27.15ZM99.7-35.2c-10.55,0-14.65,4.05-16.55,17.55C81.2-3.75,85.65.7,95.85.7,106.6.7,110.5-3.35,112.4-16.85,114.35-30.75,110.45-35.2,99.7-35.2Zm-.5,8.05c3.3,0,3.65,1,2.55,10-1.05,8.8-1.75,9.8-5.35,9.8-3.45,0-3.75-1-2.6-10C94.95-26.15,95.65-27.15,99.2-27.15Z" transform="translate(953.973 3986.545)"/><path class="b" d="M6.175-17.6c-3.2,0-4.375,1.075-4.925,4.95C.675-8.575,2.075-7.3,5.325-7.3S9.75-8.375,10.3-12.25C10.875-16.325,9.475-17.6,6.175-17.6ZM7.3,0,19.225-17.25h-3.25L4.05,0ZM6.075-14.875c.625,0,.65.225.45,2.225C6.25-10.3,6.15-10.025,5.45-10.025c-.65,0-.7-.225-.425-2.225C5.325-14.6,5.425-14.875,6.075-14.875ZM17.95-9.95c-3.2,0-4.375,1.075-4.925,4.95C12.45-.925,13.85.35,17.1.35S21.525-.725,22.075-4.6C22.65-8.675,21.25-9.95,17.95-9.95Zm-.1,2.725c.625,0,.65.225.45,2.225-.275,2.35-.375,2.625-1.075,2.625-.65,0-.7-.225-.425-2.225C17.1-6.95,17.2-7.225,17.85-7.225Z" transform="translate(1068.26 3983.404)"/></g></g></svg>