<svg xmlns="http://www.w3.org/2000/svg" viewBox="0 0 264.87 204.416"><defs><style>.a,.b,.c{fill:#0d0d0d;}.a{fill-rule:evenodd;}.b{font-size:73px;}.b,.c{font-family:Exo2.0-BlackItalic, "Exo 2.0";font-weight:800;font-style:italic;}.c{font-size:25px;}</style></defs><g transform="translate(996.081 -4161.738)"><path class="a" d="M1242.375,15.938a6.352,6.352,0,0,0-5.121,2.927l-13.415,16.1H1208.23a4.724,4.724,0,0,0-4.146,3.171l-1.463,5.122c-.244.732.244.976.976,1.219l9.024,3.9-3.659,4.39c-2.195,2.683-3.414,6.341-3.17,10.975v28.78h-10.244V104.96h10.244v2.2a3.286,3.286,0,0,0,3.415,3.171h24.39a3.452,3.452,0,0,0,3.415-3.171V98.619h87.8v8.536a3.286,3.286,0,0,0,3.415,3.171h24.39a3.286,3.286,0,0,0,3.415-3.171v-2.2h10.243V92.521h-10.243V63.986c0-4.634-.976-8.292-3.171-10.975l-3.658-4.39,9.024-3.9c.732-.244,1.219-.488.976-1.219l-1.463-5.122a4.724,4.724,0,0,0-4.146-3.171h-15.609l-13.415-16.1a7.633,7.633,0,0,0-5.121-2.927c-30.975-1.951-47.561-1.951-77.072-.244Zm-94.631,194.141h9.512v-13.9h6.585V70.327c0-4.146,2.439-6.1,7.073-5.853h20.975v131.7H1207.5l10,10.244v3.658h125.119v-3.658l10-10.244h15.609V64.474H1389.2c4.634,0,7.073,1.951,7.073,5.853v125.85h6.585v13.9h9.512V219.1H1147.5v-9.024Zm68.534-152.191,21.708,2.683c2.682.244,5.121,2.439,5.121,5.122v3.9a1.574,1.574,0,0,1-1.463,1.463l-21.707-.732a5.935,5.935,0,0,1-5.854-5.853v-4.39a2.186,2.186,0,0,1,2.195-2.2Zm127.8,0a1.993,1.993,0,0,1,2.2,1.951v4.39a6.106,6.106,0,0,1-5.854,5.853l-21.707.732a1.406,1.406,0,0,1-1.463-1.463v-3.9a5.317,5.317,0,0,1,5.122-5.122Z" transform="translate(-2143.581 4147.051)"/><g transform="translate(-1890.973 341.455)"><text class="b" transform="translate(959 3987)"><tspan x="0" y="0">+15</tspan></text><text class="c" transform="translate(1068.26 3987.404)"><tspan x="0" y="0">%</tspan></text></g></g></svg>