<svg xmlns="http://www.w3.org/2000/svg" viewBox="0 0 1139.8 81.833">
  <defs>
    <style>
      .cls-1 {
        fill: #0d0d0d;
        fill-rule: evenodd;
        opacity: 0.05;
      }
    </style>
  </defs>
  <g id="Group_1140" data-name="Group 1140" transform="translate(-150.2 -2991.073)">
    <path id="Path_180" data-name="Path 180" class="cls-1" d="M779.23,1336.759h12.6c4.328,0,4.252,6.53,0,6.53h-12.6c-4.328-.076-4.328-6.53,0-6.53Zm0-12.68h12.6c4.328,0,4.252,6.53,0,6.53h-12.6c-4.328-.076-4.328-6.53,0-6.53Zm0-12.68h12.6c4.328,0,4.252,6.53,0,6.53h-12.6c-4.328,0-4.328-6.53,0-6.53Zm-7.972,16.172c0,5.542-1.139,13.894-2.885,18.526a22.437,22.437,0,0,1-7.213,1.139c-11.693,0-21.259-8.959-21.259-19.968s9.491-19.969,21.259-19.969a30.119,30.119,0,0,1,6.909.759C770.119,1313.45,771.257,1321.954,771.257,1327.572Z" transform="translate(-40.452 1704.615)"/>
    <path id="Path_181" data-name="Path 181" class="cls-1" d="M343.354,1315.216a7,7,0,0,1,4.48-1.367h6.378l2.733-1.594,10.781,5.619.759,4.556-1.67.987a13.55,13.55,0,0,0-6.3-1.519,14.316,14.316,0,0,0-14.2,12.831,1.308,1.308,0,0,1-1.594,1.443H331.965a1.5,1.5,0,0,1-1.594-1.519,14.245,14.245,0,0,0-14.2-12.68H306.3l-2.2-1.215,1.063-4.707h2.2l.531-2.126h11.769l2.506,2.657c6.454,1.215,12.68,2.2,16.78,1.291,2.657-.532,2.581-1.215,4.4-2.658Zm10.706-2.43,2.126-1.215L354.894,1308c-.607-1.746-1.291-1.822-2.961-1.974l-4.783-.531c-1.291-.152-1.139,2.278-.228,2.354l4.783.531c.607.076.911.228.987.38l1.367,4.024ZM316.248,1324.1a12.072,12.072,0,1,0,12.072,12.072,12.054,12.054,0,0,0-12.072-12.072Zm0,6.833a5.239,5.239,0,1,0,5.239,5.239,5.249,5.249,0,0,0-5.239-5.239Zm44.265-6.833a12.072,12.072,0,1,0,12.072,12.072,12.054,12.054,0,0,0-12.072-12.072Zm0,6.833a5.239,5.239,0,1,0,5.239,5.239A5.249,5.249,0,0,0,360.513,1330.933Z" transform="translate(64.463 1705.051)"/>
    <path id="Path_182" data-name="Path 182" class="cls-1" d="M446.528,1303.8h54.515a4.245,4.245,0,0,1,4.252,4.252v30.218h12v3.493H481.15a7.441,7.441,0,0,1-14.881,0H446.452a4.245,4.245,0,0,1-4.252-4.252v-29.459a4.36,4.36,0,0,1,4.328-4.252Zm41.076,34.47v-26.042a.519.519,0,0,1,.531-.531h10.857a.519.519,0,0,1,.531.531v26.042h1.746v-26.042a2.2,2.2,0,0,0-2.2-2.2H488.211a2.2,2.2,0,0,0-2.2,2.2v26.042Zm-38.494-28.244a1.038,1.038,0,0,0-1.063,1.063v8.352a1.038,1.038,0,0,0,1.063,1.063h19.817a1.038,1.038,0,0,0,1.063-1.063v-8.352a1.038,1.038,0,0,0-1.063-1.063Zm24.752,28.244a3.493,3.493,0,1,0,3.493,3.493A3.483,3.483,0,0,0,473.861,1338.27Z" transform="translate(31.217 1705.458)"/>
    <path id="Path_183" data-name="Path 183" class="cls-1" d="M610.786,1344.561l-13.211-28.4-2.809,3.417,15.641,24.98Zm25.207-50.719a277.252,277.252,0,0,1,29-.683v4.1a255.569,255.569,0,0,0-27.637.683,2.526,2.526,0,0,0-1.594.835l-9.643,11.693c-.3.38-.228.987.607.835,14.957-.835,26.194-1.063,38.267-.911v31.889H632.5v5.011a1.87,1.87,0,0,1-.683,1.443H665v4.176H598.714v-4.176h16.248a2.009,2.009,0,0,1-.683-1.443v-25.511a9.409,9.409,0,0,1,1.9-6.378l2.126-2.506-5.239-2.354c-.38-.152-.683-.3-.531-.759l.835-3.037a2.7,2.7,0,0,1,2.43-1.822h9.187l7.9-9.491a5.059,5.059,0,0,1,3.113-1.594Zm-15.337,24.524a1.217,1.217,0,0,0-1.291,1.215v2.581a3.489,3.489,0,0,0,3.341,3.417l12.68.456a.832.832,0,0,0,.835-.759V1323a3.124,3.124,0,0,0-2.961-2.961l-12.6-1.67Zm-10.933,26.194h-.835l-24.22-17.159,3.189-4.176,21.867,21.335Zm-1.67,0h-.683l-23.765-5.315,2.354-3.417,22.094,8.731Zm-14.578-27.106a6.439,6.439,0,0,1-2.581-.987c-.683-.608-1.9-1.746-1.594-2.43s.835-1.291.835-1.974,1.215-.987,1.519-1.215,2.657-.3,3.037.076a4.56,4.56,0,0,1,.759,2.809c-.152.835-.835,1.215-1.063,2.05a4.845,4.845,0,0,1-.911,1.67Zm-11.009,16.856a5.742,5.742,0,0,1-.152,2.2,1.914,1.914,0,0,1-1.9,1.443c-.759,0-.911.38-1.822-.3s-1.291-.38-2.2-.911-2.2-1.594-1.291-2.354a20.016,20.016,0,0,1,2.505-2.05c.456-.228,1.367-1.518,2.809,0a13.964,13.964,0,0,0,2.05,1.974Zm2.43-10.933a2.834,2.834,0,0,0-.3-2.961c-1.139-1.215-3.265-1.974-3.493-2.354-.228-.3-5.163.835-4.859,1.746s1.291,4.176,2.809,4.556c1.443.3,1.367.531,2.809.759C583.3,1325.427,582.77,1323.833,584.9,1323.377Z" transform="translate(-0.703 1708.051)"/>
    <path id="Path_184" data-name="Path 184" class="cls-1" d="M1207.377,1287.8a7.365,7.365,0,1,1-7.365,7.365,7.372,7.372,0,0,1,7.365-7.365Zm-13.515,36.065c1.367-4.859,2.809-9.794,4.176-14.654,1.215-4.4,4.859-6.226,9.263-4.935a6.637,6.637,0,0,1,4.556,8.276l-4.859,16.78a6.8,6.8,0,0,1-6.909,4.859h-20.045a.614.614,0,0,0-.683.607l-4.176,18.754c-1.063,4.176-8.959,2.506-7.82-1.746l5.163-23.157a4.028,4.028,0,0,1,4.024-3.493h15.717a1.59,1.59,0,0,0,1.595-1.291Zm-10.933,21.335H1204.8c4.859,0,9.491-3.265,10.63-7.744l8.807-33.256c.911-3.265-5.922-4.555-6.757-1.367l-8.807,29.383c-.607,2.2-1.519,4.1-4.024,4.1h-21.715C1179.589,1336.317,1179.589,1345.2,1182.929,1345.2Z" transform="translate(-143.333 1709.31)"/>
    <path id="Path_185" data-name="Path 185" class="cls-1" d="M1364.006,1334.354l6.53-8.428a9.662,9.662,0,0,0,2.43-6.53,10.174,10.174,0,1,0-20.348,0,9.663,9.663,0,0,0,2.429,6.53l6.53,8.428c1.063,1.746,1.215,1.594,2.43,0Zm-54.287-25.056a11.921,11.921,0,1,1-11.844,11.92,11.876,11.876,0,0,1,11.844-11.92Zm2.2,38.039,11.389-14.729c2.809-3.568,4.176-6.682,4.176-11.389a17.843,17.843,0,1,0-35.685,0c0,4.783,1.443,7.82,4.176,11.389l11.389,14.729c2.126,2.961,2.505,2.733,4.555,0Zm37.583-11.768-11.009,13.818h-25.056l8.048-10.478h12.528l11.009-11.009h8.656l5.922,7.668h-10.1Zm13.211-22.019a5.923,5.923,0,1,1-5.846,5.922A5.865,5.865,0,0,1,1362.715,1313.55Z" transform="translate(-173.316 1705.578)"/>
    <path id="Path_186" data-name="Path 186" class="cls-1" d="M1050.013,1314.8l3.189-11.769h11.769l-3.189,11.769Zm-23.537,0,3.189-11.769h11.769l-3.189,11.769Zm29.839-23.613-3.189,11.769h-11.768l3.189-11.769Zm-21.259,35.381h11.769l3.189-11.768h-11.768l-3.189,11.768Zm38.495-11.768-3.189,11.768h-11.769l3.189-11.768Zm6.3-23.613-3.189,11.769h-11.769l3.189-11.769Zm6.074-4.783h-56.717l-12.072,44.948h56.717l12.072-44.948Zm-62.259,47.3h-7.137l-6.53,24.524h7.137Z" transform="translate(-105.476 1709.647)"/>
    <path id="Path_187" data-name="Path 187" class="cls-1" d="M178.231,1322.777a4.912,4.912,0,0,0,.607-.683,6.566,6.566,0,0,0,.456-2.961,2.371,2.371,0,0,0-2.581-1.974,2.325,2.325,0,0,0-2.581,1.974,6.728,6.728,0,0,0,.456,2.961,1.02,1.02,0,0,0,.456.531c-5.846-.152-11.009,0-18.146.38-.38.076-.38-.228-.3-.38l4.252-5.239a.8.8,0,0,1,.683-.38,111.386,111.386,0,0,1,18.146,0,.8.8,0,0,1,.683.38l2.126,2.582h2.506l-3.341-4.1a1.9,1.9,0,0,0-1.367-.759,164.7,164.7,0,0,0-19.361,0,2.09,2.09,0,0,0-1.367.759l-3.493,4.252h-4.024a1.218,1.218,0,0,0-1.063.835l-.38,1.367c-.076.152.076.228.228.3l2.278,1.063-.911,1.139a4.656,4.656,0,0,0-.835,2.885V1339.1a.843.843,0,0,0,.835.835h6.226a.843.843,0,0,0,.835-.835v-1.139h20.8v-6.074a7.816,7.816,0,0,1,1.67-5.163l-1.67-.759a1.7,1.7,0,0,1-1.063-1.974l.3-1.215a2.5,2.5,0,0,1-1.063,0Zm-24.144,3.113,5.543.683a1.4,1.4,0,0,1,1.291,1.367V1329a.359.359,0,0,1-.38.38l-5.543-.228a1.46,1.46,0,0,1-1.443-1.519V1326.5c0-.38.228-.683.531-.607Zm77.065,3.417-7.744.987a2.03,2.03,0,0,0-1.822,1.9v1.443a.519.519,0,0,0,.531.531l7.744-.3a2.158,2.158,0,0,0,2.05-2.126v-1.594c0-.531-.38-.911-.759-.835Zm-12.072-4.328a4.559,4.559,0,0,0,.835-.911,10.551,10.551,0,0,0,.607-4.1c-.152-1.822-1.822-2.809-3.644-2.809s-3.493.911-3.644,2.809a10.551,10.551,0,0,0,.607,4.1,2.972,2.972,0,0,0,.607.759c-8.2-.228-15.489-.076-25.511.531-.531.076-.531-.3-.38-.531l5.922-7.365a1.185,1.185,0,0,1,.987-.531,168.31,168.31,0,0,1,25.511,0,1.814,1.814,0,0,1,.987.531l5.922,7.365c.152.228.152.607-.38.531-3.113-.152-5.846-.3-8.428-.38Zm-24.524-10.706a231.867,231.867,0,0,1,27.181,0,3.107,3.107,0,0,1,1.9,1.063l4.859,6h5.619a1.626,1.626,0,0,1,1.443,1.139l.531,1.9c.076.228-.076.38-.3.456l-3.189,1.443,1.291,1.594a6.043,6.043,0,0,1,1.139,4.024v16.02a1.2,1.2,0,0,1-1.215,1.215h-8.731a1.2,1.2,0,0,1-1.215-1.215v-1.594H192.353v1.594a1.2,1.2,0,0,1-1.215,1.215h-8.731a1.2,1.2,0,0,1-1.215-1.215v-16.02a6.493,6.493,0,0,1,1.139-4.024l1.291-1.594-3.189-1.443c-.228-.076-.38-.228-.3-.456l.531-1.9a1.626,1.626,0,0,1,1.443-1.139h5.618l4.859-6a3.638,3.638,0,0,1,1.974-1.063Zm-9.339,15.033,7.744.987a2.03,2.03,0,0,1,1.822,1.9v1.443a.519.519,0,0,1-.531.531l-7.744-.3a2.158,2.158,0,0,1-2.05-2.126v-1.594A.679.679,0,0,1,185.216,1329.307Z" transform="translate(101.423 1703.033)"/>
    <path id="Path_188" data-name="Path 188" class="cls-1" d="M908.807,1295.1c.835,0,1.746.076,2.581.076l-2.2,3.872h-.3a2.052,2.052,0,0,0-1.594,3.341l-2.657,4.631a17.8,17.8,0,0,0-12.224,10.554l-2.05-3.568c.076-.076.152-.152.152-.228a2.078,2.078,0,0,0-.759-2.809,2.191,2.191,0,0,0-1.367-.228l-2.582-4.4a29.113,29.113,0,0,1,23.006-11.237Zm4.176.3-2.581,4.4a2.052,2.052,0,0,1-1.594,3.341h-.3l-2.05,3.568c.759-.076,1.594-.152,2.354-.152a17.957,17.957,0,0,1,12.832,5.467h5.391a2.042,2.042,0,0,1,.911-1.063,2.078,2.078,0,0,1,2.809.759c.076.076.076.152.152.3h4.48a29.36,29.36,0,0,0-22.4-16.628Zm23.006,18.07a29.009,29.009,0,0,1-3.189,27.637l-2.2-3.872c.076-.076.152-.152.152-.228a2.078,2.078,0,0,0-.759-2.809,2.191,2.191,0,0,0-1.367-.228l-2.657-4.631a18.012,18.012,0,0,0,.683-4.935,17.4,17.4,0,0,0-3.72-10.857h4.1a.576.576,0,0,0,.152.3,2.078,2.078,0,0,0,2.809.759,1.8,1.8,0,0,0,.911-1.063h5.087Zm-4.176,29-2.582-4.4a2.191,2.191,0,0,1-1.367-.228,2.078,2.078,0,0,1-.759-2.809c.076-.076.076-.152.152-.228l-2.05-3.568a17.982,17.982,0,0,1-12.224,10.554l-2.657,4.631a2.052,2.052,0,0,1-1.594,3.341h-.3l-2.2,3.872c.835.076,1.67.076,2.581.076a29.339,29.339,0,0,0,23.006-11.237Zm-27.182,10.933a29.36,29.36,0,0,1-22.4-16.628h4.48a.575.575,0,0,0,.152.3,2.078,2.078,0,0,0,2.809.759,1.8,1.8,0,0,0,.911-1.063h5.391a17.956,17.956,0,0,0,12.832,5.467,22.993,22.993,0,0,0,2.354-.152l-2.05,3.568h-.3a2.052,2.052,0,0,0-1.594,3.341l-2.581,4.4Zm-23.006-18.146h5.087a2.041,2.041,0,0,1,.911-1.063,2.078,2.078,0,0,1,2.809.759c.076.076.076.152.152.3h4.1a17.836,17.836,0,0,1-3.037-15.793l-2.657-4.631a2.191,2.191,0,0,1-1.367-.228,2.078,2.078,0,0,1-.759-2.809c.076-.076.076-.152.152-.228l-2.2-3.872a29.2,29.2,0,0,0-5.315,16.78,28.725,28.725,0,0,0,2.126,10.781Zm27.181-26.346a15.489,15.489,0,1,0,15.489,15.489,15.5,15.5,0,0,0-15.489-15.489Zm0,11.92a3.564,3.564,0,0,1,3.569,3.568,3.531,3.531,0,0,1-7.061,0,3.548,3.548,0,0,1,3.493-3.568Zm4.328,15.944H904.4a.359.359,0,0,1-.38-.38v-5.163a.359.359,0,0,1,.38-.38h8.731a.359.359,0,0,1,.38.38v5.163a.407.407,0,0,1-.38.38Zm8.048-16.78v8.731a.359.359,0,0,1-.38.38h-5.163a.359.359,0,0,1-.38-.38V1320a.359.359,0,0,1,.38-.38H920.8c.228.076.38.228.38.38Zm-24.752,8.731V1320a.359.359,0,0,1,.38-.38h5.163a.359.359,0,0,1,.38.38v8.731a.359.359,0,0,1-.38.38h-5.163a.359.359,0,0,1-.38-.38Zm8.048-16.7a.359.359,0,0,0-.38.38v5.163a.359.359,0,0,0,.38.38h8.732a.359.359,0,0,0,.38-.38v-5.163a.359.359,0,0,0-.38-.38Zm.987.911c-.152,0-.228.076-.228.152v3.72c0,.076.076.152.228.152h1.518c.152,0,.228-.076.228-.152v-3.72c0-.076-.076-.152-.228-.152Zm2.581,0c-.152,0-.228.076-.228.152v3.72c0,.076.076.152.228.152h1.519c.152,0,.228-.076.228-.152v-3.72c0-.076-.076-.152-.228-.152Zm2.657,0c-.152,0-.228.076-.228.152v3.72c0,.076.076.152.228.152h1.519c.152,0,.228-.076.228-.152v-3.72c0-.076-.076-.152-.228-.152Zm9.567,8.124v1.519c0,.152-.076.228-.152.228H916.4c-.076,0-.152-.076-.152-.228v-1.519c0-.152.076-.228.152-.228h3.72c.076,0,.152.076.152.228Zm0,2.581v1.519c0,.152-.076.228-.152.228H916.4c-.076,0-.152-.076-.152-.228v-1.519c0-.152.076-.228.152-.228h3.72c.076,0,.152.076.152.228Zm0,2.582v1.518c0,.152-.076.228-.152.228H916.4c-.076,0-.152-.076-.152-.228v-1.518c0-.152.076-.228.152-.228h3.72c.076,0,.152.152.152.228Zm-8.124,9.567H910.63c-.152,0-.228-.076-.228-.152v-3.72c0-.076.076-.152.228-.152h1.518c.152,0,.228.076.228.152v3.72c0,.076-.076.152-.228.152Zm-2.581,0h-1.519c-.152,0-.228-.076-.228-.152v-3.72c0-.076.076-.152.228-.152h1.519c.152,0,.228.076.228.152v3.72c0,.076-.152.152-.228.152Zm-2.657,0h-1.519c-.152,0-.228-.076-.228-.152v-3.72c0-.076.076-.152.228-.152h1.519c.152,0,.228.076.228.152v3.72c0,.076-.076.152-.228.152Zm-9.567-8.048v-1.518c0-.152.076-.228.152-.228h3.72c.076,0,.152.076.152.228v1.518c0,.152-.076.228-.152.228h-3.72c-.076,0-.152-.152-.152-.228Zm0-2.657v-1.519c0-.152.076-.228.152-.228h3.72c.076,0,.152.076.152.228v1.519c0,.152-.076.228-.152.228h-3.72c-.076,0-.152-.076-.152-.228Zm0-2.582v-1.518c0-.152.076-.228.152-.228h3.72c.076,0,.152.076.152.228v1.518c0,.152-.076.228-.152.228h-3.72C897.419,1322.737,897.343,1322.661,897.343,1322.509Z" transform="translate(-74.059 1707.552)"/>
    <path id="Path_189" data-name="Path 189" class="cls-1" d="M1458.193,1290.669l3.189-1.9a.7.7,0,0,1,.911.228l6.3,10.554a.7.7,0,0,1-.228.911l-3.189,1.9a.7.7,0,0,1-.911-.228l-6.3-10.554a.636.636,0,0,1,.228-.911Zm11.769-10.25c-3.037.456-6.15,4.783-7.365,7.441a1.555,1.555,0,0,1,.607.608l6.3,10.554a1.646,1.646,0,0,1-.607,2.278l-3.189,1.9a1.646,1.646,0,0,1-2.278-.607l-1.9-3.113c-.076,2.961-.076,5.846,0,7.9l-.759.228a2.5,2.5,0,0,0-1.519,1.519c-.228.531-.38,1.822.531,1.67l2.657-.3c-.076,7.137-.456,19.665-.3,26.878,0,1.215-.835.379-.911,1.822a157.258,157.258,0,0,0,1.215,16.78c.152,1.139.759.759.835,1.594a2.907,2.907,0,0,0,2.581,2.582,71.347,71.347,0,0,0,30.522-.228,2.979,2.979,0,0,0,2.582-2.582c0-.835.835-.38.911-1.67a156.566,156.566,0,0,0,.987-16.78c-.076-1.518-1.063-.531-1.063-1.822.076-7.137-.531-19.665-.759-26.878l2.809.3c.911.076.759-1.139.531-1.67a2.38,2.38,0,0,0-1.518-1.443l-.759-.228v-4.1a1.78,1.78,0,0,1-2.2-.607l-6.3-10.554a1.646,1.646,0,0,1,.607-2.278l3.189-1.9a1.646,1.646,0,0,1,2.278.608l1.822,3.113c-.076-.759-.152-1.519-.228-2.126-.152-1.443-4.479-8.428-8.2-8.883-4.859-.835-16.172-.683-21.107,0Zm-2.733,23.613a96.407,96.407,0,0,1,27.257-.228c.531.076,1.063.455.987.987l-1.594,12.224c-.076.531-.455,1.139-.987,1.063a77.923,77.923,0,0,0-23.765.228c-.531.076-.911-.456-.987-.987l-1.822-12.224c-.152-.607.38-.987.911-1.063Zm-.759,14.578a7.488,7.488,0,0,1,.228,1.822l.076,9.794a14.828,14.828,0,0,1-.228,2.582c-.228,1.519-.38,3.189-.759,4.707-.3,1.367-.607.683-.759-.456a39.265,39.265,0,0,1-.683-4.859c-.152-2.2-.152-14.806-.152-21.943l.835-.076a.574.574,0,0,0,.3-.076l1.139,8.5Zm1.443,26.65c-.531,0-1.063-.228-.987-.531l1.139-6.074c.076-.3.455-.531.987-.531a162.219,162.219,0,0,0,24.3-.228.852.852,0,0,1,.987.531l1.215,6c.076.3-.456.455-.987.531a183.808,183.808,0,0,1-26.65.3ZM1496,1287.1c-1.291-1.215-3.72-1.063-4.48-2.43l-1.519-2.809c-.228-.456-.228-.531-.076-.607.152,0,.607.076.987.076,2.354.152,4.252,2.2,5.087,4.176a2.1,2.1,0,0,1,.228,1.519c0,.076-.076.076-.228.076Zm-30.6.228c-.152.076-.228,0-.228-.152a2.218,2.218,0,0,1,.228-1.518c.759-1.974,2.657-4.024,5.011-4.252a2.388,2.388,0,0,1,.987-.076c.152,0,.152.152-.076.608l-1.519,2.809c-.759,1.443-3.189,1.367-4.4,2.581Zm30.067,30.978,1.063-8.5c.076,0,.152.076.3.076l.835.076c.076,7.061.3,19.665.152,21.943a38.585,38.585,0,0,1-.607,4.859c-.228,1.139-.456,1.822-.759.456-.38-1.443-.531-3.189-.835-4.631a14.13,14.13,0,0,1-.3-2.582l-.076-9.794a7.649,7.649,0,0,1,.228-1.9Zm-2.657-27.941,3.189-1.9a.7.7,0,0,1,.911.228l6.3,10.554a.7.7,0,0,1-.228.911l-3.189,1.9a.7.7,0,0,1-.911-.228l-6.3-10.554A.65.65,0,0,1,1492.815,1290.365Z" transform="translate(-213.293 1711.224)"/>
    <path id="Path_190" data-name="Path 190" class="cls-1" d="M39.278,1330.887l1.367-1.67c3.417-3.872,5.239-7.365,5.77-10.4.3-2.05.3-4.48,1.063-6.454a5.251,5.251,0,0,1,2.885-2.885,17.035,17.035,0,0,1,6.681-.987,4.628,4.628,0,0,1,2.05.228c.456.228.911.683.152,1.215l-3.265,2.126a16.58,16.58,0,0,0-2.354,1.67c-1.139,1.215-.835,2.961-.228,4.328a8.625,8.625,0,0,0,1.139,1.746c1.215,1.291,3.189,2.278,4.556,1.367l4.859-3.72c.3-.3.683-.455.911,0,.38.683,0,1.746-.228,2.43-.835,2.733-2.809,5.694-5.467,6.909a12.8,12.8,0,0,1-3.644.987c-2.43.456-5.163,1.974-8.124,5.011-.835.835-1.594,1.746-2.43,2.657l-.38.456a20.716,20.716,0,0,1-5.315-5.011Zm7.669-31.661a23.7,23.7,0,1,0,28.7,17.311,23.742,23.742,0,0,0-28.7-17.311Zm-.456-1.9a25.578,25.578,0,1,0,30.978,18.678,25.569,25.569,0,0,0-30.978-18.678Zm2.05,8.428a16.932,16.932,0,1,0,20.5,12.376,17,17,0,0,0-20.5-12.376Zm-.152-19.513c.3,3.568-.759,6.53-2.885,7.061s-4.48-1.594-5.846-4.859c-.987.38-2.05.835-2.961,1.291,1.519,3.265,1.443,6.454-.38,7.593-1.822,1.215-4.707,0-7.137-2.657a27.379,27.379,0,0,0-2.657,2.506c2.506,2.582,3.569,5.543,2.278,7.289s-4.48,1.594-7.593-.076c-.607,1.063-1.139,2.126-1.67,3.265,3.265,1.519,5.239,4.024,4.631,6.074s-3.644,3.037-7.213,2.581c-.228,1.215-.3,2.43-.456,3.645,3.569.3,6.3,1.974,6.454,4.1s-2.354,4.1-5.846,4.859l.456,2.05c.152.531.228.987.38,1.443,3.493-.911,6.606-.3,7.441,1.67s-.835,4.631-3.872,6.605a26.617,26.617,0,0,0,2.05,3.037c2.961-2.05,6.074-2.506,7.593-.987,1.443,1.594.835,4.631-1.367,7.517a29.973,29.973,0,0,0,2.961,2.2c2.05-2.961,4.859-4.48,6.757-3.493s2.354,4.1,1.291,7.517c1.139.38,2.278.759,3.493,1.063.911-3.493,3.037-5.846,5.163-5.619s3.644,3.037,3.8,6.605a29.331,29.331,0,0,0,3.644-.228c-.3-3.568.835-6.53,2.885-7.061,2.126-.531,4.48,1.594,5.846,4.935,1.139-.455,2.278-.911,3.341-1.443-1.519-3.265-1.443-6.454.3-7.593,1.822-1.215,4.707,0,7.137,2.657.911-.835,1.822-1.67,2.657-2.506-2.506-2.506-3.569-5.543-2.278-7.289s4.4-1.67,7.593,0a25.951,25.951,0,0,0,1.594-3.265c-3.265-1.519-5.239-3.948-4.631-6.074.607-2.05,3.644-3.037,7.137-2.582a29.657,29.657,0,0,0,.38-3.644c-3.569-.3-6.3-1.9-6.454-4.1-.152-2.126,2.354-4.1,5.846-4.859-.152-.607-.228-1.291-.38-1.9-.152-.531-.3-1.139-.456-1.67-3.493.911-6.606.3-7.441-1.594-.835-1.974.759-4.707,3.8-6.605a26.618,26.618,0,0,0-2.05-3.037c-2.961,2.05-6.074,2.582-7.593.987-1.519-1.518-.835-4.631,1.291-7.517a20.94,20.94,0,0,0-2.961-2.126c-2.05,2.961-4.783,4.48-6.757,3.568-1.9-.911-2.43-4.1-1.291-7.517a30.1,30.1,0,0,0-3.493-.987c-.911,3.493-2.961,5.846-5.087,5.619s-3.644-3.037-3.8-6.605A19.54,19.54,0,0,0,48.389,1286.242Z" transform="translate(133.7 1709.729)"/>
  </g>
</svg>
