<svg xmlns="http://www.w3.org/2000/svg" viewBox="0 0 74.707 29.741"><defs><style>.a{fill:#0d0d0d;fill-rule:evenodd;}</style></defs><path class="a" d="M154.617,318.6l16.235,6.071.068,2.729,7.572.068v-3.752l-3.615-.068v-4.434h12.21l.136,4.229-4.093.068v3.752l9.55.068,2.524,2.728,26.944-8.186,4.638,4.093-3,3.274-3.479-2.183-3.342,1.16L204,345.68a5.8,5.8,0,0,1-4.57,2.66h-29.4c-2.319,0-3.615-1.228-3.888-3.615v-4.911a3.715,3.715,0,0,0-2.66-3.956l-9.618-3.683c-1.637-.75-2.183-2.183-1.5-4.229l2.251-9.345Zm11.664,8.663-7.64-2.865c-1.023-.341-1.569-.068-1.705.955l-.477,2.046c-.273.887-.068,1.432.819,1.705l8.936,3.274v-5.116Zm52.728,11.255c0,7.5,7.026,5.935,7.026.477,0-2.933-2.729-3.956-2.456-6.48C223.853,329.923,219.01,335.517,219.01,338.518Z" transform="translate(-152.079 -318.6)"/></svg>