<svg xmlns="http://www.w3.org/2000/svg" viewBox="0 0 61.057 60.889"><defs><style>.a{fill:#0d0d0d;fill-rule:evenodd;}</style></defs><path class="a" d="M191.424,1206.274l8.161-8.161,6.478,6.478,3.2-3.2-4.8-8.16,1.262-1.262,6.478,6.478,3.2-3.2-4.8-8.161,1.262-1.262,6.478,6.478,3.2-3.2-4.8-8.16,1.262-1.262,6.478,6.478,3.113-3.113-6.478-6.478,3.7-3.7a15.4,15.4,0,0,0-.673-2.1,7.494,7.494,0,1,0-5.553-12.788,7.68,7.68,0,0,0-2.187,5.048,15.405,15.405,0,0,0-2.1-.673l-3.7,3.7-6.478-6.478-3.2,3.2,4.8,8.16-1.262,1.262-6.478-6.478-3.2,3.2,4.8,8.161-1.262,1.262-6.478-6.478-3.2,3.2,4.8,8.16-1.262,1.262-6.478-6.478-3.113,3.113,6.478,6.478-8.161,8.161,2.356,2.356-5.721,5.721a6.315,6.315,0,0,0-5.3,1.851,6.425,6.425,0,0,0,9.086,9.086,6.291,6.291,0,0,0,1.851-4.543v-.336l5.889-5.889,2.356,2.271Zm35.082-45.682a3.51,3.51,0,1,1-4.964,0,3.555,3.555,0,0,1,4.964,0Zm-48.122,47.87a2.439,2.439,0,1,1-3.449,0A2.342,2.342,0,0,1,178.384,1208.461Z" transform="translate(-170.35 -1155.775)"/></svg>