<svg xmlns="http://www.w3.org/2000/svg" viewBox="0 0 44.542 49.727"><defs><style>.a{fill:#0d0d0d;fill-rule:evenodd;}</style></defs><path class="a" d="M1071.943,1025v3.956a7.306,7.306,0,0,1-1.569,4.434v17.258c0,16.644-41.405,16.644-41.405,0v-17.258a7.462,7.462,0,0,1-1.569-4.434V1025c0-4.093,3.615-7.026,7.23-8.663a40.206,40.206,0,0,1,30.15,0c3.479,1.705,7.162,4.57,7.162,8.663Zm-22.306-3.342c-4.025,0-7.3,1.5-7.3,3.411,0,1.842,3.274,3.411,7.3,3.411s7.3-1.5,7.3-3.411-3.274-3.411-7.3-3.411Zm0-4.229c-1.637,0-2.933.614-2.933,1.364s1.3,1.364,2.933,1.364,2.933-.614,2.933-1.364-1.3-1.364-2.933-1.364Zm14.12,3.82a4.918,4.918,0,0,0-4.025-.478c-1.432.409-1.91,1.228-1.091,1.842a4.919,4.919,0,0,0,4.025.477c1.432-.341,1.91-1.228,1.091-1.842Zm0,7.572c.818-.682.341-1.5-1.091-1.842a5.2,5.2,0,0,0-4.025.477c-.818.682-.341,1.5,1.091,1.842a4.918,4.918,0,0,0,4.025-.477Zm-14.12,3.82c1.637,0,2.933-.614,2.933-1.364s-1.3-1.364-2.933-1.364-2.933.614-2.933,1.364,1.3,1.364,2.933,1.364Zm-14.12-3.82a4.918,4.918,0,0,0,4.025.477c1.432-.409,1.91-1.228,1.091-1.842a4.918,4.918,0,0,0-4.025-.477c-1.432.341-1.91,1.228-1.091,1.842Zm0-7.572c-.819.682-.341,1.5,1.091,1.842a5.2,5.2,0,0,0,4.025-.477c.819-.682.341-1.5-1.091-1.842a4.918,4.918,0,0,0-4.025.478Zm14.12-5.457c-10.914,0-19.782,4.093-19.782,9.209s8.868,9.209,19.782,9.209,19.782-4.093,19.782-9.209C1069.419,1019.948,1060.551,1015.787,1049.637,1015.787Z" transform="translate(-1027.4 -1013.4)"/></svg>