<svg xmlns="http://www.w3.org/2000/svg" viewBox="0 0 66.371 42.769"><defs><style>.a{fill:#0d0d0d;fill-rule:evenodd;}</style></defs><path class="a" d="M359.913,1203.169H302l.068-1.364.068-.682H300.5v-2.115h1.774l1.023-13.847H301.66v-2.115H303.5v-.136h0a9.362,9.362,0,0,1,.955-3.138,7.177,7.177,0,0,1,1.978-2.319l.068-.068,21.351-14.666h0a14.885,14.885,0,0,1,7.367-2.319h31.651l-.068,1.364-3.07,40.041-.068,1.3h-1.3l-2.456.068Zm2.046-24.9.955-12.96a1.2,1.2,0,0,0-1.3-1.364h-26.4a10.133,10.133,0,0,0-5.525,1.705l-17.735,12.21c-1.3.955-1.091,1.705.273,1.842H360.6a1.384,1.384,0,0,0,1.364-1.432Zm-11.187,5.048a.587.587,0,0,0-.546.546l-.136,1.842a.527.527,0,0,0,.478.546h9.618a.587.587,0,0,0,.546-.546l.136-1.842a.527.527,0,0,0-.477-.546Z" transform="translate(-300.5 -1160.4)"/></svg>