<svg xmlns="http://www.w3.org/2000/svg" viewBox="0 0 41.135 56.412"><defs><style>.a{fill:#0d0d0d;fill-rule:evenodd;}</style></defs><path class="a" d="M1190.868,451.982l13.915,12.688a1.094,1.094,0,0,1-1.023,1.91l-11.119-3.888a2.6,2.6,0,0,1-2.046-2.183l-1.637-7.367c-.409-1.3.818-2.251,1.91-1.16Zm-4.979-5.73-.614-4.229a1.1,1.1,0,0,0-1.023-1.023h-7.435a1.1,1.1,0,0,0-1.023,1.023c-.068.955-.2,1.91-.273,2.865h5.389l.068,1.432h-6.548a2.637,2.637,0,0,0-2.729,2.66v45.771a2.664,2.664,0,0,0,2.66,2.66h35.812a2.621,2.621,0,0,0,2.66-2.66l-1.774-26.808a10.452,10.452,0,0,0-3.479-7.231l-15.007-13.438a5.762,5.762,0,0,0-2.933-.955h-3.752Z" transform="translate(-1171.7 -441)"/></svg>