<svg xmlns="http://www.w3.org/2000/svg" viewBox="0 0 326.309 83.94"><defs><style>.a{fill:#ffe200;}.b{fill:#0d0d0d;}.c{fill:#fff;}</style></defs><g transform="translate(-238 -204.98)"><path class="a" d="M43.891,92.911a1.33,1.33,0,0,1-1.751,0L1.428,52.091a1.33,1.33,0,0,1,0-1.751L42.249,9.628a1.33,1.33,0,0,1,1.751,0L84.821,50.449a1.33,1.33,0,0,1,0,1.751Z" transform="translate(236.9 195.68)"/><g transform="translate(240.079 206.949)"><path class="b" d="M42.945,90.99a2.161,2.161,0,0,1-1.532-.657h0L3.547,52.687A2.688,2.688,0,0,1,3,51.045H3a2.161,2.161,0,0,1,.657-1.532h0L41.3,11.757a2.161,2.161,0,0,1,1.532-.657h0a2.161,2.161,0,0,1,1.532.657h0L82.124,49.513a2.161,2.161,0,0,1,.657,1.532h0a2.161,2.161,0,0,1-.657,1.532h0L44.477,90.443a2.615,2.615,0,0,1-1.532.547Zm-.109-77.7L5.079,51.045h0L42.836,88.8h0L80.7,51.155h0L42.836,13.289Z" transform="translate(-3 -11.1)"/></g><path class="b" d="M101.62,86.529H78.966a4.279,4.279,0,0,1-4.049-5.472L91.442,24.04A4.237,4.237,0,0,1,95.6,20.976h23.092a3.974,3.974,0,0,1,3.064,1.313c.547-.219,1.2-.438,1.751-.657a31.833,31.833,0,0,1,9.74-1.532,21.3,21.3,0,0,1,10.725,2.517,25.048,25.048,0,0,1,2.517,1.751,4.762,4.762,0,0,1,1.094-2.079,4.389,4.389,0,0,1,3.064-1.313h20.575a4.875,4.875,0,0,1,3.174,1.313,4.346,4.346,0,0,1,1.094,3.174l-.438,6.347,3.283-8.208a4.258,4.258,0,0,1,3.94-2.736h20.575a4.371,4.371,0,0,1,3.611,1.97l.328.657a4.158,4.158,0,0,1,3.94-2.627h53.187a4.2,4.2,0,0,1,3.393,1.751c.109.219.219.328.328.547a4.371,4.371,0,0,1,3.721-2.189H293.9a4.279,4.279,0,0,1,4.049,5.472L294.67,37.61a96.493,96.493,0,0,1,14.665.876c4.706.766,7.989,2.736,9.74,5.91,1.751,3.064,1.86,7.114.219,12.585l-1.423,5.034c-1.532,5.363-3.721,9.193-6.457,11.819A20.557,20.557,0,0,1,300.47,78.65a136.326,136.326,0,0,1-17.51.766H256.695a4.2,4.2,0,0,1-3.393-1.751c-.109-.219-.219-.328-.328-.547a4.371,4.371,0,0,1-3.721,2.189H226.709a4.279,4.279,0,0,1-4.049-5.472l1.2-4.268a14.985,14.985,0,0,1-3.393,4.268,20.2,20.2,0,0,1-10.834,4.815,136.325,136.325,0,0,1-17.51.766h-3.721a4.279,4.279,0,0,1-4.049-5.472l.219-.876a21.463,21.463,0,0,1-1.313,2.3,21.936,21.936,0,0,1-6.238,6.457,27.216,27.216,0,0,1-9.083,3.611,80.89,80.89,0,0,1-14.884,1.094H139.267a4.279,4.279,0,0,1-4.049-5.472l2.3-7.989A4.237,4.237,0,0,1,141.675,70c2.408,0,3.83-.109,4.706-.109V67.159l-.219-21.669-4.378,15.759c-1.423,5.034-2.955,8.646-4.6,10.944a18.482,18.482,0,0,1-8.208,6.129,30.258,30.258,0,0,1-11.163,1.97,23.59,23.59,0,0,1-9.083-1.642c-.547-.219-.985-.438-1.423-.657l-1.532,5.363a4.334,4.334,0,0,1-4.159,3.174ZM204.274,32.248,189.937,62.781a3.723,3.723,0,0,1,1.094-.109,21.777,21.777,0,0,0,4.268-.328,7.726,7.726,0,0,0,.876-2.189l8.1-27.907Z" transform="translate(243.849 196.699)"/><path class="a" d="M143.62,28.938c-.109-1.642-1.313-3.064-3.5-4.378s-5.034-1.86-8.536-1.86a27.656,27.656,0,0,0-8.427,1.313,29.522,29.522,0,0,0-7.88,3.94l1.642-4.378H93.825L77.3,80.593H99.954l3.283-11.382a14.055,14.055,0,0,0,5.472,3.94,19.634,19.634,0,0,0,7.442,1.313,24.2,24.2,0,0,0,9.521-1.751,12.648,12.648,0,0,0,6.238-4.6,36.451,36.451,0,0,0,4.049-9.631l6.129-21.012C143.292,33.425,143.729,30.58,143.62,28.938Zm-24.4,9.193-6.238,21.341a17.726,17.726,0,0,1-1.97,5.034c-.547.657-1.532.985-3.064.985s-2.408-.328-2.627-1.094.109-2.627.985-5.691l6.019-20.684c.876-2.845,1.532-4.706,2.189-5.472a4,4,0,0,1,3.174-1.094c1.532,0,2.408.328,2.517.985C120.419,33.1,120.091,34.957,119.215,38.131Zm61.4-14.555L167.149,57.283l2.3-33.707H148.764l.328,41.7a48.234,48.234,0,0,1-.109,5.253c-.219.876-.875,1.313-1.97,1.642a44.515,44.515,0,0,1-6.895.328l-2.3,7.989h13.789a72.218,72.218,0,0,0,14.008-.985,21.772,21.772,0,0,0,7.551-2.955,17.021,17.021,0,0,0,4.925-5.144c1.313-2.079,3.283-6.019,6.019-11.71l16.963-36.115H180.61Zm28.564,0L198.668,59.69c-.766,2.845-1.86,4.487-3.064,4.925a23.233,23.233,0,0,1-6.129.766l-2.408,8.208h3.721a123.735,123.735,0,0,0,16.854-.766,15.311,15.311,0,0,0,8.536-3.721q3.283-2.955,5.253-9.85l7.332-25.171h8.1l-11.491,39.4h22.544l14.446-49.9ZM314.016,44.807c-1.094-1.97-3.393-3.174-6.785-3.83a109.492,109.492,0,0,0-15.978-.876h-3.721l4.815-16.635H269.8L255.357,73.48h26.265a126.684,126.684,0,0,0,16.963-.766,14.976,14.976,0,0,0,8.536-3.721q3.283-2.955,5.253-9.849l1.423-5.034C315.111,49.841,315.22,46.777,314.016,44.807ZM290.925,55.313l-.547,1.97c-.766,2.736-1.751,4.268-2.955,4.815s-3.283.766-6.347.766l3.83-13.242q5.417.164,6.238.985C291.691,51.264,291.691,52.8,290.925,55.313Z" transform="translate(244.092 196.944)"/><path class="c" d="M51.568,85.545A35.622,35.622,0,1,1,87.135,49.868,35.66,35.66,0,0,1,51.568,85.545Zm6.019-27.8-.219.328a14.542,14.542,0,0,0-1.86,4.706l-.219.438c-1.423,4.925-1.094,9.849.766,13.242A27.109,27.109,0,0,0,78.6,49.868v-.109a50.349,50.349,0,0,0-5.691-.657,17.188,17.188,0,0,0-7.661,1.86,14.17,14.17,0,0,0-4.706,3.174l-.219.328a8.821,8.821,0,0,1-2.736,3.283ZM24.646,49.43v.438A26.953,26.953,0,0,0,46.205,76.242C48.284,72.85,48.722,67.925,47.518,63l-.219-.766a12.176,12.176,0,0,0-1.642-4.378l-.438-.438a10.1,10.1,0,0,1-2.627-3.393,18.117,18.117,0,0,0-4.706-3.283,18.56,18.56,0,0,0-7.77-1.97c-1.423.109-4.049.438-5.472.657Zm26.922-2.736a3.283,3.283,0,1,0,3.283,3.283,3.225,3.225,0,0,0-3.283-3.283Zm6.457-4.268a17.17,17.17,0,0,0,6.238,1.313h1.2c4.378,0,8.536-1.423,11.163-3.94a27.013,27.013,0,0,0-50.014-.328,17.552,17.552,0,0,0,11.6,4.049H39.31a17.377,17.377,0,0,0,5.034-.766l1.532-.985a9.663,9.663,0,0,1,5.581-1.751,9.771,9.771,0,0,1,6.129,2.189l.438.219Z" transform="translate(238.306 196.152)"/><path class="b" d="M51.464,15.4A34.364,34.364,0,1,0,85.828,49.764,34.422,34.422,0,0,0,51.464,15.4Zm0,6.129a28.25,28.25,0,0,1,26.484,18.6c-3.174,3.283-7.989,4.815-12.695,4.815h-1.2a17.266,17.266,0,0,1-6.785-1.532h0a.107.107,0,0,1-.109-.109l-.328-.328a8.625,8.625,0,0,0-5.363-1.86,8.737,8.737,0,0,0-4.925,1.532l-1.751,1.094a17.379,17.379,0,0,1-5.472.876H38.222c-4.925,0-9.959-1.642-13.133-4.925A28.352,28.352,0,0,1,51.464,21.529ZM66.238,47.137c.109.547-1.642,1.313-2.955,1.532s-1.642-.109-1.751-.547c-.109-.547.109-.985,1.423-1.2C64.268,46.59,66.238,46.7,66.238,47.137ZM55.951,49.764a4.487,4.487,0,1,1-4.487-4.487A4.579,4.579,0,0,1,55.951,49.764ZM41.5,47.684c-.109.547-.438.876-1.751.657s-3.064-.985-2.955-1.532,2.079-.547,3.393-.328C41.5,46.809,41.614,47.247,41.5,47.684Zm5.144,29.877a28.423,28.423,0,0,1-23.42-27.8,7.225,7.225,0,0,1,.109-1.532,56.816,56.816,0,0,1,6.676-.766,18.708,18.708,0,0,1,8.317,2.079,17.746,17.746,0,0,1,5.253,3.611h0a9.77,9.77,0,0,0,2.408,3.174l.547.547a13.293,13.293,0,0,1,1.751,4.815l.219.766C49.932,68.04,49.384,73.731,46.648,77.561Zm4.706-12.695c-.547,0-.876-1.86-.876-3.283,0-1.313.438-1.532.876-1.532.547,0,.876.219.876,1.532C52.23,63.006,51.792,64.866,51.354,64.866ZM55.4,77.78C52.777,73.84,52.558,68.15,54.09,62.9l.109-.547A16.145,16.145,0,0,1,56.389,57.1l.328-.328A8.911,8.911,0,0,0,59.343,53.7l.328-.547a16.2,16.2,0,0,1,5.034-3.393,18.472,18.472,0,0,1,8.208-1.97,55.246,55.246,0,0,1,6.895.876c0,.328.109.766.109,1.094A28.7,28.7,0,0,1,55.4,77.78Z" transform="translate(238.41 196.255)"/></g></svg>